<?xml version="1.0" encoding="UTF-8"?>
<svg xmlns="http://www.w3.org/2000/svg" xmlns:xlink="http://www.w3.org/1999/xlink" width="107px" height="71px" viewBox="0 0 106 71" version="1.1">
<defs>
<filter id="alpha" filterUnits="objectBoundingBox" x="0%" y="0%" width="100%" height="100%">
  <feColorMatrix type="matrix" in="SourceGraphic" values="0 0 0 0 1 0 0 0 0 1 0 0 0 0 1 0 0 0 1 0"/>
</filter>
<mask id="mask0">
  <g filter="url(#alpha)">
<rect x="0" y="0" width="106" height="71" style="fill:rgb(0%,0%,0%);fill-opacity:0.4;stroke:none;"/>
  </g>
</mask>
<clipPath id="clip1">
  <rect x="0" y="0" width="106" height="71"/>
</clipPath>
<g id="surface5" clip-path="url(#clip1)">
<path style=" stroke:none;fill-rule:nonzero;fill:rgb(0%,0%,0%);fill-opacity:1;" d="M 16.554688 45.644531 L 83.996094 45.644531 L 83.996094 55.542969 L 10.324219 55.542969 L 10.324219 51.898438 C 10.328125 48.445312 13.113281 45.644531 16.554688 45.644531 Z M 16.554688 45.644531 "/>
</g>
<mask id="mask1">
  <g filter="url(#alpha)">
<rect x="0" y="0" width="106" height="71" style="fill:rgb(0%,0%,0%);fill-opacity:0.4;stroke:none;"/>
  </g>
</mask>
<clipPath id="clip2">
  <rect x="0" y="0" width="106" height="71"/>
</clipPath>
<g id="surface8" clip-path="url(#clip2)">
<path style=" stroke:none;fill-rule:nonzero;fill:rgb(100%,100%,100%);fill-opacity:1;" d="M 6.382812 53.761719 L 9.539062 55.238281 C 9.539062 55.238281 6.445312 55.855469 4.027344 55.207031 Z M 6.382812 53.761719 "/>
</g>
<mask id="mask2">
  <g filter="url(#alpha)">
<rect x="0" y="0" width="106" height="71" style="fill:rgb(0%,0%,0%);fill-opacity:0.301961;stroke:none;"/>
  </g>
</mask>
<clipPath id="clip3">
  <rect x="0" y="0" width="106" height="71"/>
</clipPath>
<g id="surface11" clip-path="url(#clip3)">
<path style=" stroke:none;fill-rule:nonzero;fill:rgb(0%,0%,0%);fill-opacity:1;" d="M 27.875 46.898438 L 26.773438 45.84375 L 36.121094 45.511719 L 29.640625 46.34375 Z M 27.875 46.898438 "/>
</g>
<mask id="mask3">
  <g filter="url(#alpha)">
<rect x="0" y="0" width="106" height="71" style="fill:rgb(0%,0%,0%);fill-opacity:0.4;stroke:none;"/>
  </g>
</mask>
<clipPath id="clip4">
  <rect x="0" y="0" width="106" height="71"/>
</clipPath>
<g id="surface14" clip-path="url(#clip4)">
<path style=" stroke:none;fill-rule:nonzero;fill:rgb(100%,100%,100%);fill-opacity:1;" d="M 30.164062 54.792969 L 35.753906 52.390625 L 63.175781 52.921875 Z M 30.164062 54.792969 "/>
</g>
</defs>
<g id="surface1">
<path style=" stroke:none;fill-rule:nonzero;fill:rgb(92.156863%,92.156863%,92.156863%);fill-opacity:1;" d="M 65.136719 21.097656 L 65.222656 21.417969 C 65.957031 24.128906 65.199219 27.03125 63.167969 28.925781 C 62.90625 29.171875 62.628906 29.394531 62.335938 29.597656 C 60.144531 31.0625 57.371094 31.328125 54.941406 30.308594 C 53.539062 29.707031 52.242188 28.675781 50.722656 28.625 C 48.742188 28.5625 47.171875 30.160156 45.863281 31.632812 C 44.554688 33.105469 42.976562 34.699219 40.996094 34.628906 C 39.761719 34.585938 38.621094 33.859375 37.765625 32.949219 C 35.496094 30.542969 34.9375 26.832031 35.886719 23.691406 C 36.835938 20.546875 39.105469 17.949219 41.773438 16.066406 C 45.511719 13.429688 50.242188 12.039062 54.777344 12.824219 C 59.3125 13.605469 63.550781 16.746094 65.136719 21.097656 Z M 65.136719 21.097656 "/>
<path style=" stroke:none;fill-rule:nonzero;fill:rgb(92.156863%,92.156863%,92.156863%);fill-opacity:1;" d="M 35.003906 32.875 C 36.496094 34.375 36.496094 36.800781 35.003906 38.300781 C 33.511719 39.796875 31.097656 39.796875 29.605469 38.300781 C 28.113281 36.800781 28.113281 34.375 29.605469 32.875 C 31.097656 31.378906 33.511719 31.378906 35.003906 32.875 Z M 35.003906 32.875 "/>
<path style=" stroke:none;fill-rule:nonzero;fill:rgb(14.901961%,19.607843%,21.960784%);fill-opacity:1;" d="M 99.691406 60.757812 C 99.691406 60.777344 78.785156 60.792969 53.003906 60.792969 C 27.21875 60.792969 6.308594 60.777344 6.308594 60.757812 C 6.308594 60.738281 27.210938 60.71875 53.003906 60.71875 C 78.796875 60.71875 99.691406 60.734375 99.691406 60.757812 Z M 99.691406 60.757812 "/>
<path style=" stroke:none;fill-rule:nonzero;fill:rgb(92.156863%,92.156863%,92.156863%);fill-opacity:1;" d="M 74.207031 60.757812 C 76.964844 60.574219 82.515625 59.839844 85.71875 59.402344 C 87.15625 59.210938 88.753906 58.890625 90.121094 58.394531 C 91.488281 57.902344 92.761719 56.953125 93.308594 55.601562 C 93.675781 54.695312 93.65625 53.558594 92.992188 52.839844 C 92.199219 51.976562 90.839844 52.011719 89.699219 52.269531 C 90.457031 51.519531 91.535156 51.199219 92.578125 51.414062 C 93.621094 51.632812 94.484375 52.355469 94.882812 53.347656 C 95.976562 52.789062 97.300781 52.941406 98.234375 53.742188 C 99.171875 54.539062 99.542969 55.820312 99.175781 57 C 100.074219 56.683594 101.070312 56.871094 101.792969 57.496094 C 102.492188 58.117188 102.710938 59.839844 102.5 60.753906 Z M 74.207031 60.757812 "/>
<path style=" stroke:none;fill-rule:nonzero;fill:rgb(92.156863%,92.156863%,92.156863%);fill-opacity:1;" d="M 83.273438 58.683594 C 84.570312 58.449219 85.882812 58.207031 87.082031 57.664062 C 87.339844 57.566406 87.570312 57.40625 87.746094 57.195312 C 87.910156 56.976562 87.953125 56.640625 87.773438 56.433594 C 87.625 56.25 87.363281 56.210938 87.128906 56.226562 C 86.660156 56.277344 86.210938 56.457031 85.832031 56.746094 C 85.449219 57.019531 85.105469 57.347656 84.742188 57.652344 C 84.261719 58.054688 83.742188 58.40625 83.1875 58.703125 "/>
<path style=" stroke:none;fill-rule:nonzero;fill:rgb(14.901961%,19.607843%,21.960784%);fill-opacity:1;" d="M 61.332031 38.492188 C 61.316406 38.492188 61.304688 38.492188 61.292969 38.492188 L 61.183594 38.492188 L 60.757812 38.476562 L 59.1875 38.414062 L 56.859375 38.3125 L 55.484375 38.253906 C 55.246094 38.234375 55.003906 38.253906 54.753906 38.253906 L 54.007812 38.253906 C 51.976562 38.253906 50.144531 38.164062 48.820312 38.105469 L 47.25 38.027344 L 46.824219 38.003906 L 46.714844 37.996094 C 46.699219 38 46.6875 38 46.675781 37.996094 L 46.824219 37.996094 L 47.25 38.007812 L 48.820312 38.058594 C 50.148438 38.105469 51.980469 38.179688 54.007812 38.1875 L 54.753906 38.1875 C 55.003906 38.1875 55.246094 38.175781 55.484375 38.1875 L 56.859375 38.253906 L 59.1875 38.367188 L 60.757812 38.453125 L 61.183594 38.480469 L 61.292969 38.488281 Z M 61.332031 38.492188 "/>
<path style=" stroke:none;fill-rule:nonzero;fill:rgb(100%,100%,100%);fill-opacity:1;" d="M 16.554688 45.644531 L 83.996094 45.644531 L 83.996094 55.542969 L 10.324219 55.542969 L 10.324219 51.898438 C 10.328125 48.445312 13.113281 45.644531 16.554688 45.644531 Z M 16.554688 45.644531 "/>
<use xlink:href="#surface5" mask="url(#mask0)"/>
<path style=" stroke:none;fill-rule:nonzero;fill:rgb(100%,100%,100%);fill-opacity:1;" d="M 4.03125 55.203125 C 4.03125 55.203125 6.644531 58.078125 11.449219 57.492188 C 11.449219 57.492188 9.527344 46.777344 19.597656 46.1875 C 19.597656 46.1875 24.214844 45.78125 26.589844 49.59375 C 27.273438 50.710938 27.648438 51.996094 27.671875 53.308594 C 27.710938 54.8125 27.757812 57.355469 27.636719 57.992188 C 27.636719 57.992188 60.917969 56.601562 66.746094 57.269531 C 66.746094 57.269531 64.09375 48.976562 71.398438 46.316406 C 72.644531 45.863281 74.085938 45.8125 75.398438 46 C 77.1875 46.253906 79.105469 47.074219 80.34375 48.980469 C 80.875 49.800781 81.535156 50.988281 81.722656 51.949219 C 82.039062 53.59375 81.824219 55.144531 81.722656 55.953125 L 84.476562 55.683594 L 86.464844 49.066406 L 86.179688 45.128906 L 84.136719 41.242188 L 79.289062 41.820312 C 79.289062 41.820312 70.320312 39.265625 65.042969 38.199219 C 59.765625 37.132812 51.429688 36.921875 49.410156 37.273438 C 47.390625 37.621094 46.621094 37.996094 45.621094 38.433594 C 44.621094 38.867188 35.394531 43.300781 35.394531 43.300781 L 21.292969 43.414062 C 21.292969 43.414062 11.660156 43.214844 5.574219 50.484375 L 6.382812 53.761719 Z M 4.03125 55.203125 "/>
<path style=" stroke:none;fill-rule:nonzero;fill:rgb(27.058824%,35.294118%,39.215686%);fill-opacity:1;" d="M 35.398438 43.300781 C 35.398438 43.300781 44.085938 43.671875 46.375 43.585938 C 48.660156 43.496094 61.035156 42.039062 61.035156 42.039062 L 61.210938 38.46875 C 61.210938 38.46875 57.105469 38.199219 54.414062 38.199219 C 52.171875 38.199219 46.667969 37.988281 46.667969 37.988281 C 46.492188 38.0625 46.300781 38.136719 46.121094 38.214844 C 42.921875 39.585938 39.332031 41.390625 35.398438 43.300781 Z M 35.398438 43.300781 "/>
<path style=" stroke:none;fill-rule:nonzero;fill:rgb(92.156863%,92.156863%,92.156863%);fill-opacity:1;" d="M 7.632812 48.398438 C 7.632812 48.398438 8.917969 48.605469 10.53125 47.882812 C 12.140625 47.15625 16.71875 44.675781 16.71875 44.675781 L 16.417969 44.042969 C 16.417969 44.042969 15.597656 44.210938 14.652344 44.511719 C 13.628906 44.84375 12.632812 45.253906 11.671875 45.742188 C 10.917969 46.121094 10.1875 46.542969 9.476562 47.003906 C 8.835938 47.429688 8.21875 47.898438 7.632812 48.398438 Z M 7.632812 48.398438 "/>
<path style=" stroke:none;fill-rule:nonzero;fill:rgb(14.901961%,19.607843%,21.960784%);fill-opacity:1;" d="M 10.121094 50.464844 C 10.121094 50.484375 9.222656 50.527344 8.117188 50.558594 C 7.007812 50.589844 6.109375 50.601562 6.105469 50.582031 C 6.105469 50.558594 7.003906 50.519531 8.113281 50.484375 C 9.21875 50.453125 10.121094 50.445312 10.121094 50.464844 Z M 10.121094 50.464844 "/>
<use xlink:href="#surface8" mask="url(#mask1)"/>
<path style=" stroke:none;fill-rule:nonzero;fill:rgb(92.156863%,92.156863%,92.156863%);fill-opacity:1;" d="M 11.8125 49.699219 C 11.8125 49.699219 10.796875 51.195312 10.652344 52.382812 C 10.503906 53.574219 10.484375 55.066406 10.484375 55.066406 L 10.941406 55.066406 C 10.941406 55.066406 10.558594 51.433594 12.464844 49.699219 Z M 11.8125 49.699219 "/>
<use xlink:href="#surface11" mask="url(#mask2)"/>
<path style=" stroke:none;fill-rule:nonzero;fill:rgb(14.901961%,19.607843%,21.960784%);fill-opacity:1;" d="M 28.59375 55.300781 C 28.589844 55.285156 28.589844 55.273438 28.59375 55.257812 C 28.59375 55.226562 28.59375 55.183594 28.585938 55.136719 C 28.585938 55.027344 28.578125 54.871094 28.5625 54.671875 C 28.535156 54.097656 28.476562 53.53125 28.386719 52.964844 C 28.257812 52.125 28.027344 51.304688 27.703125 50.523438 C 27.296875 49.566406 26.710938 48.699219 25.972656 47.96875 C 25.242188 47.238281 24.378906 46.652344 23.429688 46.242188 L 23.269531 46.167969 L 23.105469 46.109375 L 22.785156 45.988281 C 22.566406 45.921875 22.359375 45.84375 22.15625 45.796875 C 21.953125 45.75 21.753906 45.695312 21.558594 45.664062 L 21.277344 45.609375 L 21.003906 45.570312 C 20.441406 45.5 19.871094 45.480469 19.304688 45.515625 C 19.105469 45.523438 18.949219 45.546875 18.84375 45.550781 L 18.722656 45.5625 L 18.679688 45.5625 C 18.695312 45.558594 18.707031 45.554688 18.722656 45.554688 L 18.839844 45.535156 C 18.945312 45.523438 19.101562 45.496094 19.304688 45.484375 C 19.875 45.441406 20.445312 45.453125 21.015625 45.519531 L 21.296875 45.554688 L 21.582031 45.605469 C 21.773438 45.636719 21.972656 45.6875 22.183594 45.738281 C 22.390625 45.789062 22.597656 45.863281 22.816406 45.925781 L 23.140625 46.046875 L 23.304688 46.105469 L 23.46875 46.179688 C 24.425781 46.589844 25.300781 47.179688 26.042969 47.914062 C 26.785156 48.652344 27.375 49.527344 27.777344 50.492188 C 28.105469 51.28125 28.328125 52.109375 28.449219 52.953125 C 28.527344 53.519531 28.574219 54.09375 28.585938 54.671875 C 28.597656 54.875 28.585938 55.03125 28.597656 55.136719 L 28.597656 55.257812 C 28.597656 55.273438 28.597656 55.285156 28.59375 55.300781 Z M 28.59375 55.300781 "/>
<use xlink:href="#surface14" mask="url(#mask3)"/>
<path style=" stroke:none;fill-rule:nonzero;fill:rgb(14.901961%,19.607843%,21.960784%);fill-opacity:1;" d="M 35.417969 52.535156 L 27.695312 46.726562 L 29.640625 46.34375 L 37.621094 52.425781 Z M 35.417969 52.535156 "/>
<path style=" stroke:none;fill-rule:nonzero;fill:rgb(14.901961%,19.607843%,21.960784%);fill-opacity:1;" d="M 37.878906 57.605469 C 37.871094 57.589844 37.863281 57.570312 37.863281 57.550781 C 37.851562 57.511719 37.835938 57.457031 37.820312 57.390625 C 37.785156 57.25 37.738281 57.035156 37.679688 56.773438 C 37.554688 56.234375 37.378906 55.46875 37.167969 54.542969 L 37.167969 54.527344 C 37.359375 53.886719 37.578125 53.160156 37.816406 52.382812 L 37.816406 52.398438 C 37.722656 51.746094 37.625 51.039062 37.523438 50.3125 C 37.382812 49.285156 37.253906 48.308594 37.175781 47.410156 L 37.164062 47.242188 C 37.160156 47.1875 37.160156 47.128906 37.164062 47.074219 C 37.179688 46.964844 37.203125 46.855469 37.234375 46.753906 C 37.296875 46.554688 37.371094 46.359375 37.464844 46.175781 C 37.625 45.839844 37.804688 45.515625 38.003906 45.203125 C 38.363281 44.625 38.6875 44.183594 38.910156 43.878906 C 39.023438 43.726562 39.117188 43.609375 39.175781 43.53125 C 39.207031 43.496094 39.230469 43.46875 39.25 43.445312 C 39.265625 43.421875 39.273438 43.414062 39.273438 43.417969 C 39.269531 43.429688 39.261719 43.4375 39.253906 43.449219 L 39.1875 43.542969 L 38.933594 43.894531 C 38.714844 44.203125 38.398438 44.652344 38.046875 45.230469 C 37.855469 45.542969 37.679688 45.867188 37.519531 46.199219 C 37.429688 46.382812 37.355469 46.574219 37.296875 46.769531 C 37.230469 46.972656 37.210938 47.1875 37.238281 47.402344 C 37.320312 48.292969 37.453125 49.269531 37.589844 50.296875 C 37.691406 51.027344 37.785156 51.730469 37.871094 52.386719 L 37.871094 52.398438 L 37.214844 54.542969 L 37.214844 54.527344 C 37.417969 55.457031 37.582031 56.222656 37.699219 56.761719 L 37.832031 57.382812 C 37.84375 57.449219 37.855469 57.503906 37.863281 57.546875 C 37.871094 57.566406 37.875 57.585938 37.878906 57.605469 Z M 37.878906 57.605469 "/>
<path style=" stroke:none;fill-rule:nonzero;fill:rgb(14.901961%,19.607843%,21.960784%);fill-opacity:1;" d="M 38.085938 43.40625 L 48.878906 38.101562 L 51.679688 38.199219 C 51.679688 38.199219 44.703125 39.871094 43.390625 43.570312 Z M 38.085938 43.40625 "/>
<path style=" stroke:none;fill-rule:nonzero;fill:rgb(14.901961%,19.607843%,21.960784%);fill-opacity:1;" d="M 69.773438 40.175781 L 68.710938 41.367188 L 61.035156 42.042969 L 61.210938 38.472656 C 61.210938 38.472656 68.585938 39.589844 69.773438 40.175781 Z M 69.773438 40.175781 "/>
<path style=" stroke:none;fill-rule:nonzero;fill:rgb(27.058824%,35.294118%,39.215686%);fill-opacity:1;" d="M 38.078125 55.949219 L 38.167969 55.941406 L 38.445312 55.921875 L 39.503906 55.867188 L 43.40625 55.671875 L 56.265625 55.058594 L 58.125 54.96875 C 58.722656 54.921875 59.304688 54.75 59.828125 54.457031 C 60.867188 53.890625 61.667969 53.03125 62.320312 52.164062 C 62.941406 51.339844 63.460938 50.441406 63.863281 49.488281 C 64.210938 48.65625 64.425781 47.773438 64.5 46.875 C 64.527344 46.484375 64.519531 46.089844 64.484375 45.703125 C 64.445312 45.351562 64.386719 45.007812 64.300781 44.667969 C 64.15625 44.125 63.941406 43.605469 63.65625 43.121094 C 63.476562 42.816406 63.265625 42.53125 63.027344 42.269531 C 62.945312 42.179688 62.878906 42.117188 62.835938 42.070312 L 62.773438 42 C 62.773438 42 62.796875 42.019531 62.839844 42.066406 C 62.886719 42.109375 62.953125 42.171875 63.039062 42.257812 C 63.28125 42.519531 63.496094 42.804688 63.683594 43.109375 C 63.972656 43.59375 64.191406 44.117188 64.339844 44.660156 C 64.425781 45.003906 64.492188 45.351562 64.53125 45.699219 C 64.570312 46.09375 64.578125 46.488281 64.550781 46.882812 C 64.484375 47.789062 64.269531 48.675781 63.917969 49.515625 C 63.519531 50.476562 63 51.382812 62.375 52.210938 C 61.722656 53.078125 60.914062 53.941406 59.867188 54.527344 C 59.335938 54.824219 58.742188 55.003906 58.132812 55.050781 L 56.273438 55.140625 L 43.410156 55.730469 L 39.511719 55.902344 L 38.449219 55.945312 L 38.175781 55.953125 Z M 38.078125 55.949219 "/>
<path style=" stroke:none;fill-rule:nonzero;fill:rgb(14.901961%,19.607843%,21.960784%);fill-opacity:1;" d="M 69.339844 44.597656 C 69.328125 44.46875 69.304688 44.34375 69.265625 44.21875 C 69.148438 43.886719 68.914062 43.605469 68.609375 43.429688 C 68.15625 43.167969 67.617188 43.101562 67.113281 43.25 C 66.820312 43.332031 66.554688 43.496094 66.34375 43.71875 C 65.867188 44.207031 65.867188 44.992188 66.34375 45.484375 C 66.554688 45.707031 66.820312 45.867188 67.113281 45.949219 C 67.617188 46.097656 68.15625 46.03125 68.609375 45.769531 C 68.914062 45.59375 69.148438 45.3125 69.265625 44.980469 C 69.304688 44.855469 69.328125 44.726562 69.339844 44.597656 C 69.34375 44.632812 69.34375 44.667969 69.339844 44.703125 C 69.339844 44.742188 69.335938 44.785156 69.328125 44.824219 C 69.320312 44.878906 69.308594 44.933594 69.292969 44.988281 C 69.179688 45.335938 68.949219 45.628906 68.632812 45.816406 C 68.171875 46.09375 67.613281 46.164062 67.09375 46.015625 C 66.785156 45.929688 66.507812 45.761719 66.289062 45.53125 C 65.785156 45.011719 65.785156 44.183594 66.289062 43.667969 C 66.507812 43.4375 66.785156 43.269531 67.09375 43.183594 C 67.613281 43.035156 68.171875 43.105469 68.632812 43.386719 C 68.949219 43.570312 69.183594 43.863281 69.292969 44.210938 C 69.308594 44.261719 69.320312 44.320312 69.328125 44.375 C 69.335938 44.414062 69.339844 44.457031 69.339844 44.5 C 69.34375 44.53125 69.34375 44.566406 69.339844 44.597656 Z M 69.339844 44.597656 "/>
<path style=" stroke:none;fill-rule:nonzero;fill:rgb(14.901961%,19.607843%,21.960784%);fill-opacity:1;" d="M 79.429688 41.804688 L 79.28125 41.804688 L 78.859375 41.816406 L 77.304688 41.84375 C 75.988281 41.871094 74.171875 41.910156 72.167969 41.988281 C 70.164062 42.0625 68.351562 42.152344 67.039062 42.25 C 66.382812 42.304688 65.851562 42.34375 65.484375 42.382812 L 65.058594 42.421875 L 64.949219 42.429688 C 64.9375 42.433594 64.925781 42.433594 64.910156 42.429688 C 64.921875 42.429688 64.9375 42.429688 64.949219 42.429688 L 65.058594 42.414062 L 65.480469 42.363281 C 65.847656 42.3125 66.375 42.265625 67.035156 42.207031 C 68.347656 42.09375 70.160156 41.992188 72.167969 41.921875 C 74.171875 41.851562 75.984375 41.816406 77.304688 41.804688 C 77.960938 41.804688 78.492188 41.796875 78.859375 41.804688 L 79.394531 41.804688 C 79.40625 41.804688 79.417969 41.804688 79.429688 41.804688 Z M 79.429688 41.804688 "/>
<path style=" stroke:none;fill-rule:nonzero;fill:rgb(92.156863%,92.156863%,92.156863%);fill-opacity:1;" d="M 80.089844 41.726562 L 84.738281 42.386719 L 84.136719 41.242188 Z M 80.089844 41.726562 "/>
<path style=" stroke:none;fill-rule:nonzero;fill:rgb(14.901961%,19.607843%,21.960784%);fill-opacity:1;" d="M 83.707031 42.175781 C 83.703125 42.199219 83.695312 42.222656 83.683594 42.246094 L 83.597656 42.441406 C 83.523438 42.613281 83.40625 42.859375 83.257812 43.152344 C 82.871094 43.933594 82.441406 44.691406 81.972656 45.425781 C 81.503906 46.160156 80.996094 46.867188 80.453125 47.546875 C 80.246094 47.808594 80.074219 48.015625 79.949219 48.15625 L 79.808594 48.316406 C 79.792969 48.335938 79.773438 48.351562 79.753906 48.367188 C 79.753906 48.367188 79.765625 48.34375 79.796875 48.304688 L 79.925781 48.136719 C 80.042969 47.996094 80.210938 47.777344 80.414062 47.515625 C 80.824219 46.988281 81.367188 46.238281 81.914062 45.382812 C 82.460938 44.53125 82.902344 43.71875 83.214844 43.125 C 83.371094 42.832031 83.5 42.589844 83.574219 42.417969 L 83.671875 42.226562 C 83.679688 42.207031 83.695312 42.191406 83.707031 42.175781 Z M 83.707031 42.175781 "/>
<path style=" stroke:none;fill-rule:nonzero;fill:rgb(14.901961%,19.607843%,21.960784%);fill-opacity:1;" d="M 82.789062 54.863281 C 82.789062 54.847656 82.789062 54.832031 82.789062 54.816406 L 82.789062 54.675781 C 82.789062 54.558594 82.789062 54.390625 82.789062 54.160156 C 82.757812 53.53125 82.664062 52.90625 82.507812 52.292969 C 82.273438 51.390625 81.941406 50.511719 81.523438 49.675781 C 81.289062 49.175781 81.019531 48.695312 80.722656 48.230469 C 80.40625 47.734375 80.011719 47.289062 79.550781 46.921875 C 79.078125 46.570312 78.550781 46.292969 77.996094 46.101562 C 77.476562 45.917969 76.945312 45.773438 76.40625 45.675781 C 75.492188 45.503906 74.5625 45.445312 73.632812 45.5 C 73.007812 45.535156 72.386719 45.625 71.773438 45.761719 L 71.488281 45.828125 L 71.28125 45.882812 L 71.148438 45.914062 C 71.136719 45.917969 71.121094 45.921875 71.105469 45.921875 C 71.121094 45.917969 71.132812 45.910156 71.148438 45.90625 L 71.277344 45.867188 L 71.484375 45.804688 L 71.765625 45.734375 C 72.378906 45.582031 73.003906 45.488281 73.632812 45.449219 C 74.566406 45.386719 75.503906 45.441406 76.425781 45.613281 C 76.96875 45.714844 77.503906 45.855469 78.027344 46.039062 C 78.589844 46.234375 79.121094 46.511719 79.601562 46.871094 C 80.066406 47.246094 80.46875 47.695312 80.789062 48.199219 C 81.085938 48.664062 81.355469 49.152344 81.59375 49.652344 C 82.007812 50.492188 82.335938 51.378906 82.5625 52.289062 C 82.714844 52.902344 82.800781 53.535156 82.820312 54.167969 C 82.820312 54.390625 82.820312 54.566406 82.808594 54.683594 C 82.808594 54.738281 82.808594 54.785156 82.800781 54.816406 C 82.796875 54.832031 82.796875 54.847656 82.789062 54.863281 Z M 82.789062 54.863281 "/>
<path style=" stroke:none;fill-rule:nonzero;fill:rgb(14.901961%,19.607843%,21.960784%);fill-opacity:1;" d="M 86.476562 48.34375 C 86.414062 48.371094 86.351562 48.394531 86.289062 48.410156 C 86.167969 48.449219 85.988281 48.496094 85.769531 48.550781 C 84.617188 48.832031 83.441406 48.980469 82.257812 49 C 82.027344 49 81.84375 49 81.71875 49 C 81.652344 49 81.585938 48.992188 81.519531 48.984375 C 81.585938 48.972656 81.652344 48.96875 81.71875 48.96875 L 82.253906 48.953125 C 82.707031 48.933594 83.332031 48.894531 84.015625 48.808594 C 84.703125 48.726562 85.316406 48.605469 85.757812 48.507812 L 86.28125 48.390625 C 86.34375 48.371094 86.410156 48.355469 86.476562 48.34375 Z M 86.476562 48.34375 "/>
<path style=" stroke:none;fill-rule:nonzero;fill:rgb(14.901961%,19.607843%,21.960784%);fill-opacity:1;" d="M 33.179688 48.511719 C 33.179688 48.511719 33.210938 48.511719 33.269531 48.5 L 33.53125 48.472656 L 34.550781 48.390625 L 38.300781 48.09375 C 41.464844 47.851562 45.835938 47.527344 50.667969 47.226562 C 53.085938 47.078125 55.390625 46.953125 57.484375 46.855469 C 59.582031 46.757812 61.472656 46.710938 63.058594 46.816406 C 64.3125 46.878906 65.558594 47.046875 66.78125 47.316406 C 67.214844 47.421875 67.550781 47.507812 67.773438 47.578125 L 68.027344 47.652344 L 68.113281 47.683594 C 68.113281 47.683594 68.082031 47.683594 68.023438 47.660156 L 67.769531 47.59375 C 67.542969 47.527344 67.203125 47.449219 66.777344 47.34375 C 65.550781 47.082031 64.308594 46.921875 63.054688 46.859375 C 61.472656 46.769531 59.582031 46.8125 57.484375 46.917969 C 55.390625 47.023438 53.085938 47.144531 50.671875 47.292969 C 45.839844 47.589844 41.46875 47.914062 38.304688 48.148438 L 34.554688 48.421875 L 33.535156 48.492188 L 33.269531 48.511719 Z M 33.179688 48.511719 "/>
<path style=" stroke:none;fill-rule:nonzero;fill:rgb(14.901961%,19.607843%,21.960784%);fill-opacity:1;" d="M 81.042969 53.660156 C 81.097656 57.523438 78.023438 60.699219 74.179688 60.753906 C 70.332031 60.808594 67.171875 57.722656 67.117188 53.859375 C 67.0625 49.992188 70.136719 46.816406 73.980469 46.761719 C 77.828125 46.707031 80.988281 49.796875 81.042969 53.660156 Z M 81.042969 53.660156 "/>
<path style=" stroke:none;fill-rule:nonzero;fill:rgb(14.901961%,19.607843%,21.960784%);fill-opacity:1;" d="M 67.117188 53.640625 C 67.117188 53.640625 67.117188 53.652344 67.117188 53.660156 C 67.0625 57.523438 70.132812 60.699219 73.976562 60.757812 C 77.824219 60.8125 80.984375 57.726562 81.042969 53.863281 L 81.042969 53.84375 Z M 67.117188 53.640625 "/>
<path style=" stroke:none;fill-rule:nonzero;fill:rgb(98.039216%,98.039216%,98.039216%);fill-opacity:1;" d="M 69.191406 53.691406 C 69.152344 56.402344 71.308594 58.632812 74.007812 58.671875 C 76.707031 58.710938 78.925781 56.542969 78.964844 53.828125 C 79.003906 51.117188 76.847656 48.886719 74.148438 48.847656 C 72.851562 48.828125 71.601562 49.328125 70.671875 50.238281 C 69.742188 51.144531 69.207031 52.386719 69.191406 53.691406 Z M 69.191406 53.691406 "/>
<path style=" stroke:none;fill-rule:nonzero;fill:rgb(87.843137%,87.843137%,87.843137%);fill-opacity:1;" d="M 74.148438 48.847656 C 71.449219 48.808594 69.226562 50.976562 69.191406 53.6875 L 78.96875 53.832031 C 79.007812 51.117188 76.847656 48.886719 74.148438 48.847656 Z M 74.148438 48.847656 "/>
<path style=" stroke:none;fill-rule:nonzero;fill:rgb(14.901961%,19.607843%,21.960784%);fill-opacity:1;" d="M 71.101562 53.71875 C 71.078125 55.371094 72.390625 56.730469 74.035156 56.753906 C 75.679688 56.777344 77.03125 55.457031 77.054688 53.804688 C 77.078125 52.152344 75.765625 50.792969 74.121094 50.769531 C 72.476562 50.746094 71.125 52.066406 71.101562 53.71875 Z M 71.101562 53.71875 "/>
<path style=" stroke:none;fill-rule:nonzero;fill:rgb(14.901961%,19.607843%,21.960784%);fill-opacity:1;" d="M 26.585938 53.714844 C 26.609375 57.578125 23.515625 60.730469 19.667969 60.757812 C 15.824219 60.78125 12.683594 57.671875 12.660156 53.804688 C 12.632812 49.941406 15.730469 46.789062 19.578125 46.765625 C 23.421875 46.738281 26.558594 49.851562 26.585938 53.714844 Z M 26.585938 53.714844 "/>
<path style=" stroke:none;fill-rule:nonzero;fill:rgb(14.901961%,19.607843%,21.960784%);fill-opacity:1;" d="M 12.65625 53.640625 L 12.65625 53.660156 C 12.601562 57.523438 15.671875 60.699219 19.519531 60.757812 C 23.363281 60.8125 26.527344 57.726562 26.582031 53.863281 C 26.582031 53.855469 26.582031 53.847656 26.582031 53.84375 Z M 12.65625 53.640625 "/>
<path style=" stroke:none;fill-rule:nonzero;fill:rgb(98.039216%,98.039216%,98.039216%);fill-opacity:1;" d="M 14.730469 53.691406 C 14.691406 56.402344 16.847656 58.632812 19.546875 58.671875 C 22.246094 58.710938 24.46875 56.542969 24.507812 53.828125 C 24.546875 51.117188 22.386719 48.886719 19.6875 48.847656 C 16.988281 48.808594 14.769531 50.976562 14.730469 53.691406 Z M 14.730469 53.691406 "/>
<path style=" stroke:none;fill-rule:nonzero;fill:rgb(87.843137%,87.843137%,87.843137%);fill-opacity:1;" d="M 19.6875 48.847656 C 16.988281 48.808594 14.769531 50.976562 14.730469 53.6875 L 24.507812 53.832031 C 24.546875 51.117188 22.390625 48.886719 19.6875 48.847656 Z M 19.6875 48.847656 "/>
<path style=" stroke:none;fill-rule:nonzero;fill:rgb(14.901961%,19.607843%,21.960784%);fill-opacity:1;" d="M 16.640625 53.71875 C 16.617188 55.371094 17.929688 56.726562 19.574219 56.753906 C 21.21875 56.777344 22.570312 55.457031 22.597656 53.804688 C 22.621094 52.152344 21.308594 50.792969 19.664062 50.769531 C 18.015625 50.746094 16.664062 52.066406 16.640625 53.71875 Z M 16.640625 53.71875 "/>
<path style=" stroke:none;fill-rule:nonzero;fill:rgb(14.901961%,19.607843%,21.960784%);fill-opacity:1;" d="M 65.402344 41.65625 C 65.300781 41.652344 65.203125 41.65625 65.101562 41.667969 C 64.90625 41.683594 64.613281 41.710938 64.238281 41.746094 C 63.488281 41.816406 62.402344 41.925781 61.066406 42.070312 L 56.367188 42.582031 L 53.59375 42.898438 L 52.125 43.078125 C 51.632812 43.148438 51.128906 43.21875 50.617188 43.265625 C 49.59375 43.371094 48.59375 43.449219 47.628906 43.519531 L 46.203125 43.613281 L 45.855469 43.632812 L 44.835938 43.632812 C 43.054688 43.632812 41.453125 43.597656 40.109375 43.542969 C 38.761719 43.484375 37.675781 43.417969 36.921875 43.367188 L 36.058594 43.304688 L 35.832031 43.285156 L 35.757812 43.277344 C 35.757812 43.277344 35.785156 43.277344 35.835938 43.277344 L 36.058594 43.289062 L 36.925781 43.335938 C 37.675781 43.378906 38.761719 43.4375 40.109375 43.488281 C 41.457031 43.535156 43.054688 43.566406 44.835938 43.5625 L 45.855469 43.5625 L 46.199219 43.542969 L 47.628906 43.453125 C 48.59375 43.382812 49.59375 43.304688 50.617188 43.195312 C 51.128906 43.144531 51.628906 43.078125 52.125 43.007812 C 52.621094 42.9375 53.113281 42.886719 53.589844 42.828125 L 56.367188 42.519531 C 58.132812 42.324219 59.730469 42.15625 61.070312 42.019531 C 62.410156 41.886719 63.492188 41.785156 64.242188 41.722656 C 64.992188 41.660156 65.40625 41.632812 65.402344 41.65625 Z M 65.402344 41.65625 "/>
<path style=" stroke:none;fill-rule:nonzero;fill:rgb(100%,100%,100%);fill-opacity:1;" d="M 43 44.363281 C 43 44.363281 44.15625 42.113281 44.976562 41.726562 C 44.976562 41.726562 47.164062 41.492188 47.496094 41.570312 C 47.832031 41.648438 47.9375 42.164062 47.9375 42.5 C 47.9375 42.835938 47.988281 43.433594 47.730469 43.636719 C 47.472656 43.839844 47.679688 43.820312 47.191406 43.949219 C 46.699219 44.078125 45.652344 43.878906 45.652344 43.878906 L 45.675781 44.832031 C 45.675781 44.832031 44.519531 45.429688 43.773438 45.25 C 43.347656 45.160156 43.03125 44.796875 43 44.363281 Z M 43 44.363281 "/>
<path style=" stroke:none;fill-rule:nonzero;fill:rgb(14.901961%,19.607843%,21.960784%);fill-opacity:1;" d="M 45.6875 44.828125 C 45.679688 44.808594 45.679688 44.785156 45.675781 44.765625 C 45.675781 44.714844 45.675781 44.652344 45.667969 44.578125 C 45.660156 44.40625 45.652344 44.167969 45.640625 43.867188 L 45.640625 43.839844 L 45.664062 43.839844 C 45.953125 43.894531 46.246094 43.929688 46.539062 43.945312 C 46.710938 43.957031 46.886719 43.953125 47.058594 43.933594 C 47.152344 43.921875 47.242188 43.902344 47.332031 43.871094 C 47.421875 43.839844 47.523438 43.828125 47.574219 43.753906 C 47.605469 43.710938 47.640625 43.671875 47.679688 43.640625 C 47.722656 43.609375 47.753906 43.574219 47.785156 43.535156 C 47.839844 43.449219 47.878906 43.351562 47.890625 43.25 C 47.917969 43.035156 47.929688 42.816406 47.917969 42.597656 C 47.925781 42.367188 47.894531 42.140625 47.816406 41.925781 C 47.78125 41.816406 47.714844 41.722656 47.625 41.652344 C 47.527344 41.59375 47.414062 41.566406 47.300781 41.582031 C 46.890625 41.582031 46.488281 41.617188 46.101562 41.644531 C 45.714844 41.675781 45.34375 41.710938 44.996094 41.746094 L 45.007812 41.746094 C 44.804688 41.859375 44.625 42.007812 44.472656 42.183594 C 44.328125 42.34375 44.195312 42.507812 44.070312 42.679688 C 43.828125 43.003906 43.644531 43.304688 43.484375 43.554688 C 43.324219 43.804688 43.214844 44.003906 43.136719 44.140625 L 43.046875 44.300781 C 43.035156 44.320312 43.023438 44.335938 43.011719 44.351562 C 43.019531 44.332031 43.027344 44.3125 43.035156 44.292969 L 43.117188 44.132812 C 43.191406 43.988281 43.300781 43.789062 43.449219 43.53125 C 43.597656 43.277344 43.785156 42.976562 44.023438 42.648438 C 44.148438 42.472656 44.285156 42.304688 44.425781 42.144531 C 44.582031 41.957031 44.769531 41.804688 44.976562 41.683594 L 44.988281 41.683594 C 45.339844 41.648438 45.707031 41.613281 46.09375 41.578125 C 46.480469 41.546875 46.882812 41.515625 47.300781 41.511719 C 47.363281 41.511719 47.425781 41.515625 47.488281 41.523438 C 47.554688 41.53125 47.617188 41.558594 47.671875 41.597656 C 47.769531 41.675781 47.84375 41.785156 47.886719 41.902344 C 47.964844 42.128906 48 42.363281 47.988281 42.601562 C 48 42.824219 47.988281 43.050781 47.957031 43.269531 C 47.941406 43.378906 47.902344 43.484375 47.839844 43.578125 C 47.804688 43.621094 47.765625 43.660156 47.722656 43.691406 C 47.6875 43.722656 47.652344 43.757812 47.625 43.796875 C 47.261719 44.042969 46.867188 44.019531 46.535156 44.003906 C 46.242188 43.980469 45.949219 43.941406 45.65625 43.886719 L 45.683594 43.863281 C 45.683594 44.160156 45.6875 44.398438 45.691406 44.574219 C 45.691406 44.652344 45.691406 44.714844 45.691406 44.761719 C 45.691406 44.78125 45.691406 44.804688 45.6875 44.828125 Z M 45.6875 44.828125 "/>
<path style=" stroke:none;fill-rule:nonzero;fill:rgb(27.058824%,35.294118%,39.215686%);fill-opacity:1;" d="M 30.8125 47.523438 C 30.53125 47.5625 30.246094 47.574219 29.960938 47.5625 C 29.679688 47.574219 29.394531 47.5625 29.113281 47.523438 C 29.394531 47.488281 29.679688 47.472656 29.960938 47.484375 C 30.246094 47.472656 30.53125 47.488281 30.8125 47.523438 Z M 30.8125 47.523438 "/>
<path style=" stroke:none;fill-rule:nonzero;fill:rgb(27.058824%,35.294118%,39.215686%);fill-opacity:1;" d="M 32.027344 48.421875 C 31.746094 48.460938 31.460938 48.472656 31.179688 48.457031 C 30.894531 48.472656 30.609375 48.460938 30.332031 48.421875 C 30.609375 48.386719 30.894531 48.375 31.179688 48.386719 C 31.460938 48.371094 31.746094 48.386719 32.027344 48.421875 Z M 32.027344 48.421875 "/>
<path style=" stroke:none;fill-rule:nonzero;fill:rgb(27.058824%,35.294118%,39.215686%);fill-opacity:1;" d="M 33.234375 49.308594 C 32.953125 49.34375 32.667969 49.355469 32.386719 49.34375 C 32.101562 49.355469 31.820312 49.34375 31.539062 49.308594 C 31.820312 49.269531 32.101562 49.257812 32.386719 49.269531 C 32.667969 49.257812 32.953125 49.269531 33.234375 49.308594 Z M 33.234375 49.308594 "/>
<path style=" stroke:none;fill-rule:nonzero;fill:rgb(27.058824%,35.294118%,39.215686%);fill-opacity:1;" d="M 34.441406 50.199219 C 34.160156 50.234375 33.878906 50.246094 33.59375 50.234375 C 33.3125 50.246094 33.027344 50.234375 32.746094 50.199219 C 33.027344 50.160156 33.3125 50.148438 33.59375 50.160156 C 33.878906 50.148438 34.160156 50.160156 34.441406 50.199219 Z M 34.441406 50.199219 "/>
<path style=" stroke:none;fill-rule:nonzero;fill:rgb(27.058824%,35.294118%,39.215686%);fill-opacity:1;" d="M 35.652344 51.089844 C 35.371094 51.125 35.085938 51.140625 34.804688 51.128906 C 34.519531 51.140625 34.238281 51.125 33.957031 51.089844 C 34.234375 51.050781 34.519531 51.039062 34.804688 51.050781 C 35.085938 51.039062 35.371094 51.050781 35.652344 51.089844 Z M 35.652344 51.089844 "/>
<path style=" stroke:none;fill-rule:nonzero;fill:rgb(27.058824%,35.294118%,39.215686%);fill-opacity:1;" d="M 36.859375 51.980469 C 36.582031 52.019531 36.296875 52.03125 36.011719 52.015625 C 35.730469 52.03125 35.445312 52.019531 35.164062 51.980469 C 35.445312 51.945312 35.730469 51.929688 36.011719 51.945312 C 36.296875 51.929688 36.578125 51.945312 36.859375 51.980469 Z M 36.859375 51.980469 "/>
<path style=" stroke:none;fill-rule:nonzero;fill:rgb(100%,100%,100%);fill-opacity:1;" d="M 47.207031 41.882812 C 46.859375 41.917969 46.511719 41.929688 46.164062 41.917969 C 45.816406 41.929688 45.46875 41.917969 45.121094 41.882812 C 45.46875 41.84375 45.816406 41.832031 46.164062 41.84375 C 46.511719 41.832031 46.859375 41.84375 47.207031 41.882812 Z M 47.207031 41.882812 "/>
<path style=" stroke:none;fill-rule:nonzero;fill:rgb(100%,100%,100%);fill-opacity:1;" d="M 22.492188 45.503906 C 22.421875 45.496094 22.347656 45.480469 22.28125 45.460938 C 22.144531 45.429688 21.949219 45.390625 21.703125 45.34375 C 21.460938 45.300781 21.167969 45.261719 20.84375 45.234375 C 20.136719 45.171875 19.425781 45.191406 18.722656 45.289062 C 18.398438 45.335938 18.109375 45.390625 17.867188 45.445312 C 17.625 45.503906 17.433594 45.554688 17.300781 45.589844 C 17.234375 45.613281 17.164062 45.628906 17.09375 45.640625 C 17.15625 45.609375 17.222656 45.582031 17.292969 45.5625 C 17.421875 45.515625 17.617188 45.453125 17.859375 45.390625 C 18.140625 45.316406 18.429688 45.257812 18.714844 45.214844 C 19.425781 45.109375 20.144531 45.089844 20.855469 45.160156 C 21.183594 45.191406 21.476562 45.238281 21.722656 45.289062 C 21.96875 45.339844 22.164062 45.386719 22.296875 45.429688 C 22.363281 45.449219 22.429688 45.472656 22.492188 45.503906 Z M 22.492188 45.503906 "/>
<path style=" stroke:none;fill-rule:nonzero;fill:rgb(100%,100%,100%);fill-opacity:1;" d="M 63.175781 52.921875 C 63.175781 52.941406 55.800781 53.367188 46.703125 53.871094 C 37.605469 54.378906 30.226562 54.769531 30.226562 54.75 C 30.222656 54.726562 37.597656 54.304688 46.699219 53.796875 C 55.800781 53.292969 63.175781 52.898438 63.175781 52.921875 Z M 63.175781 52.921875 "/>
<path style=" stroke:none;fill-rule:nonzero;fill:rgb(100%,100%,100%);fill-opacity:1;" d="M 77.355469 45.441406 C 77.277344 45.425781 77.199219 45.40625 77.121094 45.378906 C 77.046875 45.355469 76.953125 45.328125 76.847656 45.300781 C 76.738281 45.273438 76.617188 45.238281 76.480469 45.210938 C 76.210938 45.144531 75.882812 45.085938 75.515625 45.035156 C 75.117188 44.984375 74.71875 44.957031 74.320312 44.953125 C 73.917969 44.953125 73.519531 44.976562 73.121094 45.019531 C 72.753906 45.066406 72.425781 45.121094 72.152344 45.179688 C 72.011719 45.207031 71.894531 45.242188 71.789062 45.269531 C 71.679688 45.292969 71.585938 45.320312 71.511719 45.34375 C 71.433594 45.367188 71.355469 45.386719 71.273438 45.402344 C 71.347656 45.367188 71.425781 45.335938 71.503906 45.316406 C 71.578125 45.289062 71.667969 45.257812 71.777344 45.226562 C 71.882812 45.199219 72.003906 45.160156 72.140625 45.128906 C 72.460938 45.054688 72.785156 44.992188 73.113281 44.953125 C 73.511719 44.902344 73.917969 44.878906 74.320312 44.878906 C 74.722656 44.886719 75.125 44.914062 75.527344 44.96875 C 75.851562 45.015625 76.175781 45.078125 76.492188 45.160156 C 76.636719 45.191406 76.75 45.230469 76.859375 45.261719 C 76.964844 45.292969 77.054688 45.324219 77.128906 45.351562 C 77.207031 45.375 77.285156 45.40625 77.355469 45.441406 Z M 77.355469 45.441406 "/>
<path style=" stroke:none;fill-rule:nonzero;fill:rgb(100%,100%,100%);fill-opacity:1;" d="M 67.105469 43.035156 C 67.105469 43.046875 67 43.0625 66.839844 43.117188 C 66.417969 43.253906 66.058594 43.539062 65.828125 43.921875 C 65.785156 44.003906 65.738281 44.085938 65.6875 44.160156 C 65.699219 44.066406 65.730469 43.976562 65.78125 43.894531 C 65.996094 43.484375 66.375 43.183594 66.824219 43.066406 C 66.914062 43.035156 67.011719 43.027344 67.105469 43.035156 Z M 67.105469 43.035156 "/>
<path style=" stroke:none;fill-rule:nonzero;fill:rgb(100%,100%,100%);fill-opacity:1;" d="M 72.878906 41.679688 C 72.738281 41.71875 72.59375 41.746094 72.449219 41.757812 C 72.175781 41.792969 71.804688 41.832031 71.390625 41.851562 C 70.976562 41.867188 70.597656 41.863281 70.328125 41.851562 C 70.179688 41.851562 70.035156 41.839844 69.890625 41.808594 C 70.035156 41.796875 70.183594 41.792969 70.328125 41.796875 C 70.597656 41.796875 70.972656 41.796875 71.386719 41.773438 C 71.796875 41.75 72.171875 41.726562 72.441406 41.703125 C 72.585938 41.683594 72.734375 41.675781 72.878906 41.679688 Z M 72.878906 41.679688 "/>
<path style=" stroke:none;fill-rule:nonzero;fill:rgb(100%,100%,100%);fill-opacity:1;" d="M 57.367188 42.925781 C 57.367188 42.945312 55.980469 43.164062 54.257812 43.414062 C 52.535156 43.664062 51.148438 43.851562 51.136719 43.832031 C 51.128906 43.8125 52.527344 43.589844 54.246094 43.34375 C 55.96875 43.09375 57.363281 42.90625 57.367188 42.925781 Z M 57.367188 42.925781 "/>
<path style=" stroke:none;fill-rule:nonzero;fill:rgb(100%,100%,100%);fill-opacity:1;" d="M 55.949219 39.824219 C 55.957031 39.84375 55.296875 40.152344 54.46875 40.507812 C 53.644531 40.867188 52.96875 41.144531 52.960938 41.125 C 52.953125 41.109375 53.613281 40.800781 54.441406 40.441406 C 55.265625 40.082031 55.941406 39.808594 55.949219 39.824219 Z M 55.949219 39.824219 "/>
<path style=" stroke:none;fill-rule:nonzero;fill:rgb(100%,100%,100%);fill-opacity:1;" d="M 55.160156 39.433594 C 55.101562 39.480469 55.039062 39.515625 54.972656 39.546875 C 54.847656 39.617188 54.667969 39.714844 54.441406 39.832031 C 53.988281 40.0625 53.359375 40.367188 52.648438 40.683594 C 51.941406 41 51.292969 41.253906 50.8125 41.433594 C 50.574219 41.523438 50.382812 41.589844 50.246094 41.636719 C 50.179688 41.664062 50.109375 41.683594 50.035156 41.699219 C 50.101562 41.664062 50.167969 41.632812 50.238281 41.609375 L 50.792969 41.382812 C 51.261719 41.195312 51.910156 40.929688 52.617188 40.617188 C 53.320312 40.304688 53.957031 40.007812 54.414062 39.789062 L 54.953125 39.53125 C 55.019531 39.492188 55.089844 39.460938 55.160156 39.433594 Z M 55.160156 39.433594 "/>
<path style=" stroke:none;fill-rule:nonzero;fill:rgb(27.058824%,35.294118%,39.215686%);fill-opacity:1;" d="M 80.121094 51.875 C 80.007812 51.574219 79.882812 51.28125 79.738281 50.992188 C 79.570312 50.714844 79.394531 50.449219 79.199219 50.191406 C 79.28125 50.246094 79.351562 50.3125 79.40625 50.390625 C 79.558594 50.5625 79.691406 50.753906 79.800781 50.957031 C 79.914062 51.160156 80 51.375 80.066406 51.59375 C 80.101562 51.683594 80.121094 51.78125 80.121094 51.875 Z M 80.121094 51.875 "/>
<path style=" stroke:none;fill-rule:nonzero;fill:rgb(27.058824%,35.294118%,39.215686%);fill-opacity:1;" d="M 80.042969 53.421875 C 80.023438 53.300781 80.007812 53.175781 80 53.054688 C 79.960938 52.761719 79.898438 52.46875 79.804688 52.1875 C 79.710938 51.910156 79.585938 51.640625 79.441406 51.382812 C 79.371094 51.28125 79.308594 51.171875 79.253906 51.0625 C 79.34375 51.148438 79.421875 51.246094 79.484375 51.355469 C 79.648438 51.609375 79.78125 51.878906 79.875 52.167969 C 79.96875 52.453125 80.03125 52.75 80.050781 53.046875 C 80.066406 53.171875 80.066406 53.296875 80.042969 53.421875 Z M 80.042969 53.421875 "/>
<path style=" stroke:none;fill-rule:nonzero;fill:rgb(27.058824%,35.294118%,39.215686%);fill-opacity:1;" d="M 69.375 56.601562 C 69.289062 56.523438 69.214844 56.429688 69.152344 56.328125 C 68.832031 55.859375 68.617188 55.328125 68.515625 54.769531 C 68.488281 54.652344 68.476562 54.535156 68.484375 54.417969 C 68.570312 54.804688 68.683594 55.183594 68.820312 55.554688 C 68.980469 55.914062 69.167969 56.265625 69.375 56.601562 Z M 69.375 56.601562 "/>
<path style=" stroke:none;fill-rule:nonzero;fill:rgb(27.058824%,35.294118%,39.215686%);fill-opacity:1;" d="M 69.589844 57.765625 C 69.589844 57.765625 69.554688 57.738281 69.496094 57.6875 C 69.4375 57.632812 69.355469 57.550781 69.265625 57.449219 C 69.019531 57.175781 68.800781 56.878906 68.613281 56.5625 C 68.425781 56.25 68.269531 55.917969 68.148438 55.570312 C 68.101562 55.4375 68.066406 55.328125 68.050781 55.253906 C 68.035156 55.214844 68.027344 55.171875 68.027344 55.132812 C 68.039062 55.132812 68.089844 55.292969 68.195312 55.558594 C 68.332031 55.894531 68.492188 56.21875 68.675781 56.53125 C 68.863281 56.84375 69.074219 57.140625 69.304688 57.421875 C 69.40625 57.53125 69.5 57.644531 69.589844 57.765625 Z M 69.589844 57.765625 "/>
<path style=" stroke:none;fill-rule:nonzero;fill:rgb(27.058824%,35.294118%,39.215686%);fill-opacity:1;" d="M 15.414062 57.410156 C 15.332031 57.351562 15.257812 57.277344 15.191406 57.199219 C 15.023438 57.015625 14.867188 56.820312 14.722656 56.617188 C 14.578125 56.414062 14.449219 56.203125 14.328125 55.980469 C 14.273438 55.894531 14.230469 55.796875 14.203125 55.699219 C 14.222656 55.6875 14.449219 56.101562 14.785156 56.570312 C 15.117188 57.042969 15.429688 57.394531 15.414062 57.410156 Z M 15.414062 57.410156 "/>
<path style=" stroke:none;fill-rule:nonzero;fill:rgb(27.058824%,35.294118%,39.215686%);fill-opacity:1;" d="M 15.613281 58.21875 C 15.375 58.058594 15.152344 57.867188 14.960938 57.652344 C 14.75 57.449219 14.5625 57.222656 14.410156 56.976562 C 14.425781 56.964844 14.679688 57.261719 15.011719 57.597656 C 15.34375 57.9375 15.628906 58.203125 15.613281 58.21875 Z M 15.613281 58.21875 "/>
<path style=" stroke:none;fill-rule:nonzero;fill:rgb(27.058824%,35.294118%,39.215686%);fill-opacity:1;" d="M 25.296875 52.90625 C 25.277344 52.90625 25.226562 52.539062 25.066406 52.109375 C 24.90625 51.683594 24.707031 51.371094 24.726562 51.359375 C 25.074219 51.800781 25.269531 52.34375 25.292969 52.90625 Z M 25.296875 52.90625 "/>
<path style=" stroke:none;fill-rule:nonzero;fill:rgb(27.058824%,35.294118%,39.215686%);fill-opacity:1;" d="M 25.652344 53.039062 C 25.585938 52.6875 25.492188 52.339844 25.371094 52 C 25.222656 51.671875 25.054688 51.355469 24.859375 51.054688 C 24.9375 51.125 25.007812 51.207031 25.066406 51.296875 C 25.21875 51.507812 25.34375 51.734375 25.441406 51.972656 C 25.535156 52.210938 25.605469 52.460938 25.640625 52.71875 C 25.664062 52.824219 25.667969 52.933594 25.652344 53.039062 Z M 25.652344 53.039062 "/>
<path style=" stroke:none;fill-rule:nonzero;fill:rgb(27.058824%,35.294118%,39.215686%);fill-opacity:1;" d="M 14.1875 59.140625 C 14.105469 59.089844 14.03125 59.027344 13.96875 58.957031 C 13.800781 58.796875 13.648438 58.625 13.511719 58.4375 C 13.371094 58.253906 13.246094 58.058594 13.136719 57.855469 C 13.085938 57.773438 13.046875 57.6875 13.019531 57.59375 C 13.039062 57.582031 13.246094 57.96875 13.570312 58.394531 C 13.890625 58.820312 14.203125 59.125 14.1875 59.140625 Z M 14.1875 59.140625 "/>
<path style=" stroke:none;fill-rule:nonzero;fill:rgb(27.058824%,35.294118%,39.215686%);fill-opacity:1;" d="M 14.558594 60 C 14.515625 59.988281 14.476562 59.96875 14.441406 59.945312 C 14.371094 59.910156 14.269531 59.847656 14.148438 59.769531 C 13.511719 59.347656 12.976562 58.789062 12.578125 58.136719 C 12.503906 58.011719 12.445312 57.910156 12.410156 57.835938 C 12.390625 57.796875 12.371094 57.757812 12.363281 57.71875 C 12.375 57.71875 12.460938 57.871094 12.621094 58.109375 C 13.042969 58.734375 13.566406 59.285156 14.175781 59.726562 C 14.414062 59.894531 14.566406 59.988281 14.558594 60 Z M 14.558594 60 "/>
<path style=" stroke:none;fill-rule:nonzero;fill:rgb(14.901961%,19.607843%,21.960784%);fill-opacity:1;" d="M 99.03125 48.789062 C 99.03125 48.808594 97.042969 48.824219 94.589844 48.824219 C 92.140625 48.824219 90.152344 48.808594 90.152344 48.789062 C 90.152344 48.769531 92.140625 48.75 94.589844 48.75 C 97.042969 48.75 99.03125 48.765625 99.03125 48.789062 Z M 99.03125 48.789062 "/>
<path style=" stroke:none;fill-rule:nonzero;fill:rgb(14.901961%,19.607843%,21.960784%);fill-opacity:1;" d="M 99.097656 48.023438 C 99.097656 48.046875 97.683594 48.0625 95.945312 48.0625 C 94.207031 48.0625 92.792969 48.046875 92.792969 48.023438 C 92.792969 48.003906 94.207031 47.988281 95.945312 47.988281 C 97.683594 47.988281 99.097656 48.003906 99.097656 48.023438 Z M 99.097656 48.023438 "/>
<path style=" stroke:none;fill-rule:nonzero;fill:rgb(98.039216%,98.039216%,98.039216%);fill-opacity:1;" d="M 88.601562 27.351562 C 88.601562 32.574219 84.386719 36.804688 79.191406 36.804688 C 73.996094 36.804688 69.785156 32.574219 69.785156 27.351562 C 69.785156 22.132812 73.996094 17.898438 79.191406 17.898438 C 84.386719 17.898438 88.601562 22.132812 88.601562 27.351562 Z M 88.601562 27.351562 "/>
<path style=" stroke:none;fill-rule:nonzero;fill:rgb(14.901961%,19.607843%,21.960784%);fill-opacity:1;" d="M 79.191406 36.945312 C 73.917969 36.945312 69.640625 32.652344 69.640625 27.351562 C 69.640625 22.054688 73.917969 17.757812 79.191406 17.757812 C 84.464844 17.757812 88.742188 22.054688 88.742188 27.351562 C 88.738281 32.648438 84.464844 36.941406 79.191406 36.945312 Z M 79.191406 18.042969 C 74.074219 18.042969 69.925781 22.210938 69.925781 27.355469 C 69.925781 32.496094 74.074219 36.664062 79.191406 36.664062 C 84.3125 36.664062 88.460938 32.496094 88.460938 27.351562 C 88.453125 22.210938 84.308594 18.046875 79.191406 18.042969 Z M 79.191406 18.042969 "/>
<path style=" stroke:none;fill-rule:nonzero;fill:rgb(14.901961%,19.607843%,21.960784%);fill-opacity:1;" d="M 79.289062 20.789062 C 79.25 20.488281 79.238281 20.1875 79.25 19.882812 C 79.238281 19.582031 79.25 19.277344 79.289062 18.976562 C 79.324219 19.277344 79.335938 19.582031 79.324219 19.882812 C 79.335938 20.1875 79.324219 20.488281 79.289062 20.789062 Z M 79.289062 20.789062 "/>
<path style=" stroke:none;fill-rule:nonzero;fill:rgb(14.901961%,19.607843%,21.960784%);fill-opacity:1;" d="M 74.425781 22.578125 C 74.210938 22.40625 74.011719 22.21875 73.828125 22.011719 C 73.628906 21.820312 73.449219 21.613281 73.285156 21.390625 C 73.5 21.5625 73.699219 21.753906 73.882812 21.957031 C 74.082031 22.148438 74.265625 22.355469 74.425781 22.578125 Z M 74.425781 22.578125 "/>
<path style=" stroke:none;fill-rule:nonzero;fill:rgb(14.901961%,19.607843%,21.960784%);fill-opacity:1;" d="M 73.179688 27.546875 C 72.429688 27.597656 71.671875 27.597656 70.917969 27.546875 C 71.671875 27.5 72.429688 27.5 73.179688 27.546875 Z M 73.179688 27.546875 "/>
<path style=" stroke:none;fill-rule:nonzero;fill:rgb(14.901961%,19.607843%,21.960784%);fill-opacity:1;" d="M 74.40625 32.1875 C 74.261719 32.390625 74.101562 32.582031 73.925781 32.757812 C 73.769531 32.949219 73.589844 33.121094 73.394531 33.269531 C 73.535156 33.066406 73.695312 32.878906 73.871094 32.703125 C 74.03125 32.511719 74.207031 32.339844 74.40625 32.1875 Z M 74.40625 32.1875 "/>
<path style=" stroke:none;fill-rule:nonzero;fill:rgb(100%,100%,100%);fill-opacity:1;" d="M 85.082031 33.167969 C 86.457031 31.78125 87.308594 29.957031 87.484375 28.003906 C 87.78125 24.480469 86.25 22.632812 85.117188 21.402344 L 84.128906 22.347656 C 85.136719 23.425781 86.679688 25.570312 86.261719 28.109375 C 85.921875 30.15625 84.867188 31.695312 84.226562 32.359375 Z M 85.082031 33.167969 "/>
<path style=" stroke:none;fill-rule:nonzero;fill:rgb(14.901961%,19.607843%,21.960784%);fill-opacity:1;" d="M 78.960938 28.5625 C 78.363281 28.445312 77.976562 27.863281 78.09375 27.265625 C 78.210938 26.664062 78.789062 26.273438 79.386719 26.394531 C 79.980469 26.511719 80.371094 27.09375 80.253906 27.691406 C 80.136719 28.289062 79.558594 28.679688 78.960938 28.5625 Z M 78.960938 28.5625 "/>
<path style=" stroke:none;fill-rule:nonzero;fill:rgb(14.901961%,19.607843%,21.960784%);fill-opacity:1;" d="M 83.09375 30.089844 L 76.707031 25.175781 L 76.101562 26.105469 Z M 83.09375 30.089844 "/>
<path style=" stroke:none;fill-rule:nonzero;fill:rgb(14.901961%,19.607843%,21.960784%);fill-opacity:1;" d="M 87.511719 27.273438 C 87.511719 27.273438 87.511719 27.226562 87.511719 27.132812 C 87.511719 27.035156 87.511719 26.910156 87.492188 26.734375 C 87.457031 26.226562 87.378906 25.722656 87.253906 25.226562 C 86.785156 23.398438 85.71875 21.78125 84.21875 20.636719 C 83.730469 20.261719 83.199219 19.945312 82.636719 19.6875 C 82.027344 19.40625 81.386719 19.207031 80.730469 19.085938 C 79.652344 18.886719 78.550781 18.898438 77.480469 19.125 C 77.101562 19.203125 76.734375 19.3125 76.371094 19.441406 C 73.097656 20.636719 70.914062 23.765625 70.914062 27.265625 C 70.914062 30.769531 73.097656 33.898438 76.371094 35.09375 C 76.734375 35.226562 77.101562 35.332031 77.480469 35.410156 C 78.550781 35.636719 79.652344 35.648438 80.730469 35.449219 C 81.386719 35.328125 82.027344 35.128906 82.636719 34.847656 C 83.199219 34.589844 83.730469 34.273438 84.222656 33.898438 C 86.132812 32.433594 87.324219 30.214844 87.484375 27.804688 C 87.5 27.632812 87.5 27.5 87.503906 27.410156 C 87.507812 27.320312 87.503906 27.265625 87.503906 27.265625 C 87.503906 27.265625 87.503906 27.449219 87.492188 27.800781 C 87.464844 28.308594 87.386719 28.816406 87.265625 29.3125 C 87.070312 30.101562 86.765625 30.855469 86.355469 31.554688 C 85.804688 32.480469 85.085938 33.289062 84.234375 33.945312 C 83.742188 34.324219 83.207031 34.644531 82.640625 34.90625 C 82.03125 35.1875 81.386719 35.394531 80.722656 35.515625 C 79.640625 35.71875 78.527344 35.707031 77.449219 35.484375 C 77.070312 35.402344 76.699219 35.296875 76.332031 35.164062 C 73.027344 33.960938 70.828125 30.804688 70.828125 27.273438 C 70.828125 23.742188 73.027344 20.585938 76.332031 19.382812 C 76.699219 19.25 77.070312 19.144531 77.449219 19.0625 C 78.527344 18.839844 79.640625 18.828125 80.722656 19.03125 C 82 19.269531 83.203125 19.808594 84.234375 20.601562 C 85.085938 21.253906 85.804688 22.066406 86.355469 22.988281 C 86.765625 23.6875 87.074219 24.441406 87.269531 25.226562 C 87.390625 25.722656 87.46875 26.230469 87.496094 26.738281 C 87.515625 27.089844 87.511719 27.273438 87.511719 27.273438 Z M 87.511719 27.273438 "/>
<path style=" stroke:none;fill-rule:nonzero;fill:rgb(14.901961%,19.607843%,21.960784%);fill-opacity:1;" d="M 87.515625 27.21875 C 86.921875 27.269531 86.328125 27.269531 85.738281 27.21875 C 86.328125 27.171875 86.921875 27.171875 87.515625 27.21875 Z M 87.515625 27.21875 "/>
<path style=" stroke:none;fill-rule:nonzero;fill:rgb(14.901961%,19.607843%,21.960784%);fill-opacity:1;" d="M 85.082031 33.167969 C 84.832031 32.980469 84.59375 32.769531 84.375 32.542969 C 84.140625 32.335938 83.925781 32.109375 83.726562 31.863281 C 84.210938 32.265625 84.660156 32.699219 85.078125 33.167969 Z M 85.082031 33.167969 "/>
<path style=" stroke:none;fill-rule:nonzero;fill:rgb(14.901961%,19.607843%,21.960784%);fill-opacity:1;" d="M 85.113281 21.402344 C 85.136719 21.421875 84.863281 21.703125 84.507812 22.027344 C 84.304688 22.234375 84.078125 22.417969 83.839844 22.585938 C 84.03125 22.363281 84.238281 22.160156 84.460938 21.972656 C 84.636719 21.8125 84.796875 21.667969 84.914062 21.5625 C 84.976562 21.507812 85.042969 21.453125 85.113281 21.402344 Z M 85.113281 21.402344 "/>
<path style=" stroke:none;fill-rule:nonzero;fill:rgb(14.901961%,19.607843%,21.960784%);fill-opacity:1;" d="M 83.625 30.410156 C 83.492188 30.566406 83.3125 30.679688 83.113281 30.722656 C 82.921875 30.792969 82.710938 30.796875 82.515625 30.734375 C 82.710938 30.722656 82.902344 30.695312 83.09375 30.652344 C 83.277344 30.585938 83.453125 30.503906 83.625 30.410156 Z M 83.625 30.410156 "/>
<path style=" stroke:none;fill-rule:nonzero;fill:rgb(14.901961%,19.607843%,21.960784%);fill-opacity:1;" d="M 83.914062 30.671875 C 83.859375 30.746094 83.789062 30.804688 83.707031 30.847656 C 83.335938 31.089844 82.882812 31.167969 82.449219 31.070312 C 82.359375 31.058594 82.273438 31.023438 82.195312 30.976562 C 82.785156 31.132812 83.414062 31.023438 83.914062 30.671875 Z M 83.914062 30.671875 "/>
<path style=" stroke:none;fill-rule:nonzero;fill:rgb(14.901961%,19.607843%,21.960784%);fill-opacity:1;" d="M 77.128906 24.5 C 76.9375 24.464844 76.742188 24.445312 76.546875 24.449219 C 76.355469 24.476562 76.164062 24.523438 75.980469 24.589844 C 76.3125 24.332031 76.761719 24.296875 77.128906 24.496094 Z M 77.128906 24.5 "/>
<path style=" stroke:none;fill-rule:nonzero;fill:rgb(14.901961%,19.607843%,21.960784%);fill-opacity:1;" d="M 77.253906 24.253906 C 76.707031 24.125 76.128906 24.179688 75.613281 24.410156 C 76.101562 24.085938 76.714844 24.027344 77.253906 24.253906 Z M 77.253906 24.253906 "/>
</g>
</svg>
